Coordinates
version=1
nRows=17
nColumns=38
inDegrees=no

Units are S.I. units (second, meters, Newtons, ...)
If the header above contains a line with 'inDegrees', this indicates whether rotational values are in degrees (yes) or radians (no).

endheader
time	pelvis_tilt	pelvis_list	pelvis_rotation	pelvis_tx	pelvis_ty	pelvis_tz	hip_flexion_r	hip_adduction_r	hip_rotation_r	knee_angle_r	ankle_angle_r	subtalar_angle_r	mtp_angle_r	hip_flexion_l	hip_adduction_l	hip_rotation_l	knee_angle_l	ankle_angle_l	subtalar_angle_l	mtp_angle_l	lumbar_extension	lumbar_bending	lumbar_rotation	arm_flex_r	arm_add_r	arm_rot_r	elbow_flex_r	pro_sup_r	wrist_flex_r	wrist_dev_r	arm_flex_l	arm_add_l	arm_rot_l	elbow_flex_l	pro_sup_l	wrist_flex_l	wrist_dev_l
0	-0.386613	1.51212	-1.05974	0.427397	1.48276	1.03388	0.337273	0.0293193	0.247877	0.302316	-0.123541	0	0	-0.290176	-0.0903813	-0.288541	0.418442	-0.0709454	0	0	-0.411757	0.0531686	0.185414	0.08101	-0.593948	0.8239	0.77864	0.668942	0	0	0.213858	-0.268269	0.79562	0.5128	0.592323	0	0
0.01	-0.390037	1.50442	-1.05376	0.427697	1.46978	1.03287	0.321046	0.0375533	0.266067	0.306561	-0.127748	0	0	-0.304642	-0.0999636	-0.293205	0.429658	-0.0747232	0	0	-0.413	0.0589254	0.186317	0.0721213	-0.593467	0.818266	0.783356	0.669468	0	0	0.210147	-0.269958	0.797899	0.511693	0.590316	0	0
0.02	-0.382293	1.49662	-1.0606	0.427707	1.45667	1.03188	0.309297	0.0463852	0.281432	0.316276	-0.139794	0	0	-0.319479	-0.108006	-0.296125	0.44096	-0.080235	0	0	-0.414805	0.0636202	0.188477	0.0626084	-0.593814	0.811926	0.789927	0.670756	0	0	0.205729	-0.271882	0.798056	0.511884	0.588876	0	0
0.03	-0.374384	1.48951	-1.06897	0.427432	1.44359	1.03094	0.299619	0.0554376	0.297769	0.325394	-0.159902	0	0	-0.332054	-0.115641	-0.298238	0.455296	-0.0876884	0	0	-0.416401	0.0672535	0.191631	0.0529547	-0.593998	0.804732	0.796787	0.673192	0	0	0.201174	-0.273825	0.796611	0.512479	0.587118	0	0
0.04	-0.374884	1.48384	-1.06882	0.426956	1.43036	1.0301	0.291412	0.0639652	0.310869	0.334371	-0.178166	0	0	-0.340657	-0.123823	-0.297708	0.473153	-0.0956792	0	0	-0.416028	0.0702509	0.194357	0.0445855	-0.59222	0.79989	0.800487	0.675351	0	0	0.196473	-0.275924	0.795026	0.511662	0.587487	0	0
0.05	-0.386169	1.47897	-1.05674	0.426538	1.41678	1.02953	0.28124	0.0713938	0.318102	0.339103	-0.194328	0	0	-0.345813	-0.133623	-0.295063	0.49405	-0.105423	0	0	-0.414381	0.0736674	0.196201	0.0368821	-0.588558	0.796134	0.801065	0.6766	0	0	0.191598	-0.277461	0.79321	0.50884	0.589368	0	0
0.06	-0.398475	1.47403	-1.04342	0.426148	1.40303	1.02929	0.2683	0.0775772	0.321233	0.338818	-0.212711	0	0	-0.348461	-0.144695	-0.292829	0.518816	-0.119247	0	0	-0.412669	0.0769899	0.197981	0.0299878	-0.583662	0.793883	0.799221	0.678477	0	0	0.186667	-0.277801	0.789637	0.504247	0.591052	0	0
0.07	-0.411614	1.46923	-1.02978	0.425701	1.38931	1.02935	0.255535	0.0833033	0.322057	0.339161	-0.231596	0	0	-0.347473	-0.156717	-0.290838	0.549309	-0.137032	0	0	-0.411075	0.0800505	0.200015	0.0243695	-0.578384	0.793103	0.796177	0.679645	0	0	0.181833	-0.277233	0.784461	0.498792	0.592349	0	0
0.08	-0.425513	1.46429	-1.01628	0.425139	1.37584	1.02985	0.244869	0.0893368	0.319188	0.345243	-0.248709	0	0	-0.342151	-0.16992	-0.289254	0.586875	-0.158908	0	0	-0.410332	0.0829034	0.202685	0.0208359	-0.573218	0.794101	0.792207	0.679769	0	0	0.177946	-0.276405	0.779914	0.492672	0.595275	0	0
0.09	-0.436563	1.45867	-1.00689	0.424337	1.36253	1.03087	0.240147	0.0977101	0.31942	0.370891	-0.257879	0	0	-0.333501	-0.18425	-0.287933	0.63058	-0.185273	0	0	-0.41098	0.0852993	0.2064	0.0188316	-0.568434	0.796666	0.78818	0.678901	0	0	0.175051	-0.275712	0.776403	0.48623	0.600077	0	0
0.1	-0.445954	1.45363	-1.0005	0.423399	1.34932	1.03229	0.23554	0.105446	0.313229	0.394997	-0.264012	0	0	-0.320438	-0.198534	-0.285744	0.679269	-0.215851	0	0	-0.412066	0.086685	0.21122	0.0181603	-0.563818	0.800726	0.783549	0.677142	0	0	0.172957	-0.27444	0.772848	0.479134	0.605632	0	0
0.11	-0.447969	1.44886	-1.0013	0.422492	1.33641	1.03394	0.231177	0.112224	0.306073	0.420031	-0.26753	0	0	-0.303337	-0.213193	-0.283056	0.732397	-0.251401	0	0	-0.413938	0.0873192	0.215769	0.0183787	-0.560141	0.805894	0.779925	0.674195	0	0	0.171766	-0.273098	0.769258	0.47248	0.611597	0	0
0.12	-0.443685	1.4452	-1.00745	0.421764	1.32387	1.03567	0.225996	0.116931	0.298693	0.442438	-0.267142	0	0	-0.281098	-0.227548	-0.27934	0.789261	-0.293912	0	0	-0.415946	0.0870531	0.219065	0.0196324	-0.557175	0.812257	0.776953	0.669542	0	0	0.171179	-0.27205	0.765319	0.466644	0.61781	0	0
0.13	-0.424007	1.44063	-1.02765	0.421439	1.31156	1.03779	0.211554	0.118135	0.287077	0.448306	-0.266926	0	0	-0.258511	-0.239737	-0.27271	0.845407	-0.333702	0	0	-0.420354	0.0860959	0.220624	0.0215919	-0.555013	0.818527	0.774788	0.6646	0	0	0.171169	-0.271643	0.76234	0.462299	0.622786	0	0
0.14	-0.39279	1.43478	-1.05947	0.421275	1.29939	1.04025	0.190154	0.117528	0.274489	0.44484	-0.266773	0	0	-0.237422	-0.249908	-0.266264	0.899483	-0.373765	0	0	-0.426927	0.0844832	0.221678	0.0241761	-0.554411	0.82599	0.774461	0.658525	0	0	0.17128	-0.271868	0.759895	0.459494	0.626959	0	0
0.15	-0.35509	1.42888	-1.09896	0.421092	1.28732	1.04284	0.165495	0.115433	0.262091	0.436822	-0.266294	0	0	-0.217773	-0.257396	-0.261395	0.950093	-0.407686	0	0	-0.43409	0.0813969	0.223283	0.0269177	-0.554785	0.833684	0.775389	0.651032	0	0	0.171428	-0.272771	0.758494	0.458189	0.62916	0	0
0.16	-0.30888	1.42043	-1.14437	0.42124	1.27588	1.04578	0.136454	0.112034	0.245867	0.425976	-0.266079	0	0	-0.200052	-0.263231	-0.253193	0.997977	-0.431211	0	0	-0.445006	0.0787495	0.222804	0.0304555	-0.557793	0.841801	0.780487	0.639869	0	0	0.172994	-0.275717	0.760611	0.460805	0.626981	0	0
